# xmcd
#
# Track frame offsets:
#	150
#	18290
#	30366
#	40461
#	57347
#	73467
#	91072
#	105938
#	122452
#	135743
#
# Disc length: 1947 seconds
#
# Revision: 0
# Processed by: cddbd v1.5.1PL2 Copyright (c) Steve Scherf et al.
# Submitted via: EasyCDDAExtractor 8.2.3.1
#
DISCID=7c07990a
DTITLE=Reba McEntire - Reba Neel McEntire
DYEAR=1900
DGENRE=
TTITLE0=I've Never Stopped Dreaming Of You 
TTITLE1=Hold On 
TTITLE2=I Know I'll Have A Better Day Tomorrow 
TTITLE3=Don't Say Goonight, Say Good Morning 
TTITLE4=Muddy Mississippi 
TTITLE5=It's Another Silent Night 
TTITLE6=Empty Arms 
TTITLE7=Love Is Never Easy 
TTITLE8=Waiting For The Sun To Shine 
TTITLE9=Good Friends
EXTD=
EXTT0=
EXTT1=
EXTT2=
EXTT3=
EXTT4=
EXTT5=
EXTT6=
EXTT7=
EXTT8=
EXTT9=
PLAYORDER=
